#tb 0: 1/25
#media_type 0: video
#codec_id 0: rawvideo
#dimensions 0: 352x288
#sar 0: 0/1
0,          0,          0,        1,   811008, 0xf3eb6abf
0,          1,          1,        1,   811008, 0x571cc33c
0,          2,          2,        1,   811008, 0xd49d8198
0,          3,          3,        1,   811008, 0x3678463f
0,          4,          4,        1,   811008, 0x9f516803
0,          5,          5,        1,   811008, 0xdd8f198e
0,          6,          6,        1,   811008, 0xd4d3f782
0,          7,          7,        1,   811008, 0xab92886a
0,          8,          8,        1,   811008, 0x364d4da9
0,          9,          9,        1,   811008, 0xb7464a24
0,         10,         10,        1,   811008, 0x4893fbdf
0,         11,         11,        1,   811008, 0xa4c0dadf
0,         12,         12,        1,   811008, 0xa6257afc
0,         13,         13,        1,   811008, 0xac2a8727
0,         14,         14,        1,   811008, 0x26baffca
0,         15,         15,        1,   811008, 0x15caec7d
0,         16,         16,        1,   811008, 0xe71dc306
0,         17,         17,        1,   811008, 0x037e152b
0,         18,         18,        1,   811008, 0xd2c06ca4
0,         19,         19,        1,   811008, 0xc02f5f95
0,         20,         20,        1,   811008, 0xd5264cc8
0,         21,         21,        1,   811008, 0xc5f95fdf
0,         22,         22,        1,   811008, 0x8b8f60ce
0,         23,         23,        1,   811008, 0x46824219
0,         24,         24,        1,   811008, 0xc2e36d4e
0,         25,         25,        1,   811008, 0xf8dab4c1
0,         26,         26,        1,   811008, 0x3fcb65c5
0,         27,         27,        1,   811008, 0xd832071f
0,         28,         28,        1,   811008, 0xb3240fb0
0,         29,         29,        1,   811008, 0xc7e95387
0,         30,         30,        1,   811008, 0x9ed5729e
0,         31,         31,        1,   811008, 0xf25d2abf
0,         32,         32,        1,   811008, 0x4e96041b
0,         33,         33,        1,   811008, 0xb68d32e1
0,         34,         34,        1,   811008, 0xd7ccdc76
0,         35,         35,        1,   811008, 0xf89b05ef
0,         36,         36,        1,   811008, 0x74a8437d
0,         37,         37,        1,   811008, 0x86ac9a93
0,         38,         38,        1,   811008, 0x5bb97fbf
0,         39,         39,        1,   811008, 0x22d15d72
0,         40,         40,        1,   811008, 0xffd4ee57
0,         41,         41,        1,   811008, 0x470b81c8
0,         42,         42,        1,   811008, 0xac93c551
0,         43,         43,        1,   811008, 0x434b4aa3
0,         44,         44,        1,   811008, 0xa8984233
0,         45,         45,        1,   811008, 0xb0c15e79
0,         46,         46,        1,   811008, 0x7004f3a2
0,         47,         47,        1,   811008, 0x355f872a
0,         48,         48,        1,   811008, 0x2d878838
0,         49,         49,        1,   811008, 0x970b8eda
